HIERARCHY
ROOT Hips
{
	OFFSET 0.000000 0.000000 0.000000
	CHANNELS 6 Xposition Yposition Zposition Xrotation Yrotation Zrotation
	JOINT Thigh.L
	{
		OFFSET 0.053859 0.031029 -0.091234
		CHANNELS 3 Xrotation Yrotation Zrotation
		JOINT Shin.L
		{
			OFFSET 0.052845 0.017146 -0.410960
			CHANNELS 3 Xrotation Yrotation Zrotation
			JOINT Foot.L
			{
				OFFSET -0.041250 0.033001 -0.430491
				CHANNELS 3 Xrotation Yrotation Zrotation
				JOINT Toe.L
				{
					OFFSET 0.044424 -0.118453 -0.063683
					CHANNELS 3 Xrotation Yrotation Zrotation
					End Site
					{
						OFFSET 0.000000 0.050000 0.000000
					}
				}
			}
		}
	}
	JOINT Thigh.R
	{
		OFFSET -0.059151 0.028620 -0.101341
		CHANNELS 3 Xrotation Yrotation Zrotation
		JOINT Shin.R
		{
			OFFSET -0.042296 0.022288 -0.394942
			CHANNELS 3 Xrotation Yrotation Zrotation
			JOINT Foot.R
			{
				OFFSET 0.015636 0.021587 -0.439394
				CHANNELS 3 Xrotation Yrotation Zrotation
				JOINT Toe.R
				{
					OFFSET -0.036862 -0.119194 -0.063684
					CHANNELS 3 Xrotation Yrotation Zrotation
					End Site
					{
						OFFSET 0.000000 0.050000 0.000000
					}
				}
			}
		}
	}
	JOINT Spine
	{
		OFFSET -0.001915 0.018487 0.107899
		CHANNELS 3 Xrotation Yrotation Zrotation
		JOINT Spine.2
		{
			OFFSET 0.006330 0.002180 0.132010
			CHANNELS 3 Xrotation Yrotation Zrotation
			JOINT Chest
			{
				OFFSET -0.010241 -0.022996 0.048569
				CHANNELS 3 Xrotation Yrotation Zrotation
				JOINT Neck
				{
					OFFSET -0.009109 0.029092 0.164046
					CHANNELS 3 Xrotation Yrotation Zrotation
					JOINT Head
					{
						OFFSET 0.021845 -0.023723 0.170664
						CHANNELS 3 Xrotation Yrotation Zrotation
						End Site
						{
							OFFSET 0.000000 0.050000 0.000000
						}
					}
				}
				JOINT Clavicle.L
				{
					OFFSET 0.042905 0.008603 0.083646
					CHANNELS 3 Xrotation Yrotation Zrotation
					JOINT UpperArm.L
					{
						OFFSET 0.104518 0.014524 0.061022
						CHANNELS 3 Xrotation Yrotation Zrotation
						JOINT ForeArm.L
						{
							OFFSET 0.263247 0.034606 -0.075605
							CHANNELS 3 Xrotation Yrotation Zrotation
							JOINT Hand.L
							{
								OFFSET 0.261289 0.006811 0.020841
								CHANNELS 3 Xrotation Yrotation Zrotation
								JOINT Thumb1.L
								{
									OFFSET 0.154580 0.003117 0.009538
									CHANNELS 3 Xrotation Yrotation Zrotation
									JOINT Thumb2.L
									{
										OFFSET 0.029895 0.000779 0.002385
										CHANNELS 3 Xrotation Yrotation Zrotation
										End Site
										{
											OFFSET 0.024912 0.000649 0.001987
										}
									}
								}
								JOINT Index1.L
								{
									OFFSET 0.137580 0.003117 0.009538
									CHANNELS 3 Xrotation Yrotation Zrotation
									JOINT Index2.L
									{
										OFFSET 0.029895 0.000779 0.002385
										CHANNELS 3 Xrotation Yrotation Zrotation
										JOINT Index3.L
										{
											OFFSET 0.021923 0.000571 0.001749
											CHANNELS 3 Xrotation Yrotation Zrotation
											End Site
											{
												OFFSET 0.017937 0.000468 0.001431
											}
										}
									}
								}
								JOINT Middle1.L
								{
									OFFSET 0.119580 0.003117 0.009538
									CHANNELS 3 Xrotation Yrotation Zrotation
									JOINT Middle2.L
									{
										OFFSET 0.030891 0.000805 0.002464
										CHANNELS 3 Xrotation Yrotation Zrotation
										JOINT Middle3.L
										{
											OFFSET 0.021923 0.000571 0.001749
											CHANNELS 3 Xrotation Yrotation Zrotation
											End Site
											{
												OFFSET 0.017937 0.000468 0.001431
											}
										}
									}
								}
								JOINT Ring1.L
								{
									OFFSET 0.101580 0.003117 0.009538
									CHANNELS 3 Xrotation Yrotation Zrotation
									JOINT Ring2.L
									{
										OFFSET 0.028898 0.000753 0.002305
										CHANNELS 3 Xrotation Yrotation Zrotation
										JOINT Ring3.L
										{
											OFFSET 0.019930 0.000520 0.001590
											CHANNELS 3 Xrotation Yrotation Zrotation
											End Site
											{
												OFFSET 0.016940 0.000442 0.001351
											}
										}
									}
								}
								JOINT Pinky1.L
								{
									OFFSET 0.085580 0.003117 0.009538
									CHANNELS 3 Xrotation Yrotation Zrotation
									JOINT Pinky2.L
									{
										OFFSET 0.023916 0.000623 0.001908
										CHANNELS 3 Xrotation Yrotation Zrotation
										JOINT Pinky3.L
										{
											OFFSET 0.016940 0.000442 0.001351
											CHANNELS 3 Xrotation Yrotation Zrotation
											End Site
											{
												OFFSET 0.013951 0.000364 0.001113
											}
										}
									}
								}
							}
						}
					}
				}
				JOINT Clavicle.R
				{
					OFFSET -0.040680 0.014714 0.083063
					CHANNELS 3 Xrotation Yrotation Zrotation
					JOINT UpperArm.R
					{
						OFFSET -0.090243 0.009338 0.056854
						CHANNELS 3 Xrotation Yrotation Zrotation
						JOINT ForeArm.R
						{
							OFFSET -0.278967 0.022272 -0.043380
							CHANNELS 3 Xrotation Yrotation Zrotation
							JOINT Hand.R
							{
								OFFSET -0.258090 0.019232 -0.003477
								CHANNELS 3 Xrotation Yrotation Zrotation
								JOINT Thumb1.R
								{
									OFFSET -0.154657 0.008916 -0.001612
									CHANNELS 3 Xrotation Yrotation Zrotation
									JOINT Thumb2.R
									{
										OFFSET -0.029914 0.002229 -0.000403
										CHANNELS 3 Xrotation Yrotation Zrotation
										End Site
										{
											OFFSET -0.024929 0.001858 -0.000336
										}
									}
								}
								JOINT Index1.R
								{
									OFFSET -0.137657 0.008916 -0.001612
									CHANNELS 3 Xrotation Yrotation Zrotation
									JOINT Index2.R
									{
										OFFSET -0.029914 0.002229 -0.000403
										CHANNELS 3 Xrotation Yrotation Zrotation
										JOINT Index3.R
										{
											OFFSET -0.021937 0.001635 -0.000296
											CHANNELS 3 Xrotation Yrotation Zrotation
											End Site
											{
												OFFSET -0.017949 0.001337 -0.000242
											}
										}
									}
								}
								JOINT Middle1.R
								{
									OFFSET -0.119657 0.008916 -0.001612
									CHANNELS 3 Xrotation Yrotation Zrotation
									JOINT Middle2.R
									{
										OFFSET -0.030912 0.002303 -0.000416
										CHANNELS 3 Xrotation Yrotation Zrotation
										JOINT Middle3.R
										{
											OFFSET -0.021937 0.001635 -0.000296
											CHANNELS 3 Xrotation Yrotation Zrotation
											End Site
											{
												OFFSET -0.017949 0.001337 -0.000242
											}
										}
									}
								}
								JOINT Ring1.R
								{
									OFFSET -0.101657 0.008916 -0.001612
									CHANNELS 3 Xrotation Yrotation Zrotation
									JOINT Ring2.R
									{
										OFFSET -0.028917 0.002155 -0.000390
										CHANNELS 3 Xrotation Yrotation Zrotation
										JOINT Ring3.R
										{
											OFFSET -0.019943 0.001486 -0.000269
											CHANNELS 3 Xrotation Yrotation Zrotation
											End Site
											{
												OFFSET -0.016951 0.001263 -0.000228
											}
										}
									}
								}
								JOINT Pinky1.R
								{
									OFFSET -0.085657 0.008916 -0.001612
									CHANNELS 3 Xrotation Yrotation Zrotation
									JOINT Pinky2.R
									{
										OFFSET -0.023931 0.001783 -0.000322
										CHANNELS 3 Xrotation Yrotation Zrotation
										JOINT Pinky3.R
										{
											OFFSET -0.016951 0.001263 -0.000228
											CHANNELS 3 Xrotation Yrotation Zrotation
											End Site
											{
												OFFSET -0.013960 0.001040 -0.000188
											}
										}
									}
								}
							}
						}
					}
				}
			}
		}
	}
}
MOTION
Frames: 7
Frame Time: 0.03333333
-0.099722 -0.254397 1.199945 -2.350230 3.672513 -29.030619 -50.515970 -9.548212 -6.647833 80.623904 9.593623 -8.809281 -28.876728 -1.911890 5.300949 -3.398803 -8.868493 -2.176437 -55.119023 7.287860 5.247976 82.916641 -8.820069 -0.279200 -31.639999 8.221767 -3.069445 2.698649 -5.595544 1.213764 27.685106 0.059124 0.999287 2.917174 -6.081663 -5.800592 -9.484941 0.865266 2.061353 3.541542 1.607311 -1.638041 -0.081886 -2.786070 -8.609565 -8.562251 3.312244 -20.769667 -7.696085 26.644511 -38.279226 -23.350885 -4.017067 -65.955516 -24.482085 -13.315001 -7.934784 0.000000 0.000000 0.000000 0.000000 0.000000 0.000000 0.000000 0.000000 0.000000 0.000000 0.000000 0.000000 0.000000 0.000000 0.000000 0.000000 0.000000 0.000000 0.000000 0.000000 0.000000 0.000000 0.000000 0.000000 0.000000 0.000000 0.000000 0.000000 0.000000 0.000000 0.000000 0.000000 0.000000 0.000000 0.000000 0.000000 0.000000 0.000000 0.000000 0.000000 0.000000 0.000000 -7.419572 -3.486087 17.462828 -7.827318 -24.520390 30.695741 -28.786320 4.355824 66.868758 -24.811489 7.117158 5.077802 0.000000 0.000000 0.000000 0.000000 0.000000 0.000000 0.000000 0.000000 0.000000 0.000000 0.000000 0.000000 0.000000 0.000000 0.000000 0.000000 0.000000 0.000000 0.000000 0.000000 0.000000 0.000000 0.000000 0.000000 0.000000 0.000000 0.000000 0.000000 0.000000 0.000000 0.000000 0.000000 0.000000 0.000000 0.000000 0.000000 0.000000 0.000000 0.000000 0.000000 0.000000 0.000000
-0.100485 -0.259150 1.183804 -2.823434 3.618799 -29.141207 -52.499352 -9.754578 -7.056134 84.197565 9.859103 -9.412248 -29.813074 -2.528841 4.750658 -3.526215 -8.905596 -2.165619 -57.303018 7.687482 5.672012 86.588012 -9.132007 0.172014 -32.844693 8.984338 -2.972854 2.776347 -5.923852 1.129060 28.634323 -0.008136 1.007521 2.704115 -6.202508 -5.608518 -9.381191 1.021539 2.040379 2.679299 1.098008 -1.970673 -0.615268 -3.063432 -9.341501 -7.946292 4.320509 -20.827113 -6.474658 28.246820 -38.894220 -22.287473 -4.189300 -63.031100 -23.478231 -13.898921 -7.657978 0.000000 0.000000 0.000000 0.000000 0.000000 0.000000 0.000000 0.000000 0.000000 0.000000 0.000000 0.000000 0.000000 0.000000 0.000000 0.000000 0.000000 0.000000 0.000000 0.000000 0.000000 0.000000 0.000000 0.000000 0.000000 0.000000 0.000000 0.000000 0.000000 0.000000 0.000000 0.000000 0.000000 0.000000 0.000000 0.000000 0.000000 0.000000 0.000000 0.000000 0.000000 0.000000 -7.236790 -4.119087 17.868348 -6.608653 -25.897852 31.548618 -27.039422 4.289001 63.866062 -24.058413 6.780538 4.919238 0.000000 0.000000 0.000000 0.000000 0.000000 0.000000 0.000000 0.000000 0.000000 0.000000 0.000000 0.000000 0.000000 0.000000 0.000000 0.000000 0.000000 0.000000 0.000000 0.000000 0.000000 0.000000 0.000000 0.000000 0.000000 0.000000 0.000000 0.000000 0.000000 0.000000 0.000000 0.000000 0.000000 0.000000 0.000000 0.000000 0.000000 0.000000 0.000000 0.000000 0.000000 0.000000
-0.098480 -0.261247 1.167959 -2.757298 3.531843 -29.130744 -54.182175 -10.039619 -7.501571 86.545042 9.941286 -9.630175 -31.906933 -3.489020 4.277951 -3.554785 -8.874968 -2.190146 -58.935953 7.854395 5.841289 88.933036 -9.496172 0.188783 -35.252956 9.933331 -2.303212 2.863171 -6.085973 1.089771 29.229150 -0.109753 1.060189 2.644621 -6.189332 -5.507966 -9.427662 1.029055 2.146783 2.454230 1.106538 -2.065926 -1.250675 -3.205209 -9.391693 -7.567256 4.850904 -20.991622 -5.678059 29.436149 -39.134739 -21.871130 -4.359524 -62.093629 -23.408903 -13.679635 -7.557646 0.000000 0.000000 0.000000 0.000000 0.000000 0.000000 0.000000 0.000000 0.000000 0.000000 0.000000 0.000000 0.000000 0.000000 0.000000 0.000000 0.000000 0.000000 0.000000 0.000000 0.000000 0.000000 0.000000 0.000000 0.000000 0.000000 0.000000 0.000000 0.000000 0.000000 0.000000 0.000000 0.000000 0.000000 0.000000 0.000000 0.000000 0.000000 0.000000 0.000000 0.000000 0.000000 -7.017173 -4.219401 18.282828 -6.395391 -26.570898 31.670440 -26.515484 4.463336 62.246217 -23.318614 6.335486 4.937866 0.000000 0.000000 0.000000 0.000000 0.000000 0.000000 0.000000 0.000000 0.000000 0.000000 0.000000 0.000000 0.000000 0.000000 0.000000 0.000000 0.000000 0.000000 0.000000 0.000000 0.000000 0.000000 0.000000 0.000000 0.000000 0.000000 0.000000 0.000000 0.000000 0.000000 0.000000 0.000000 0.000000 0.000000 0.000000 0.000000 0.000000 0.000000 0.000000 0.000000 0.000000 0.000000
-0.099751 -0.265192 1.152131 -2.884089 3.581241 -29.440521 -56.193656 -10.305442 -7.961754 89.528964 10.012927 -10.137715 -32.633592 -4.047866 4.129790 -3.636047 -8.884806 -2.175213 -60.940549 8.089395 6.129813 91.752050 -9.832761 0.520536 -36.323081 10.489749 -1.855058 2.851410 -6.404886 0.989027 30.106708 -0.192348 1.085274 2.404871 -6.232448 -5.420762 -9.145100 1.097643 2.077455 1.762781 0.656797 -1.958593 -1.382966 -3.497053 -9.713326 -6.863926 5.980450 -21.061543 -4.788971 30.257264 -38.859147 -20.879551 -4.452371 -59.663973 -22.347092 -13.917476 -7.562765 0.000000 0.000000 0.000000 0.000000 0.000000 0.000000 0.000000 0.000000 0.000000 0.000000 0.000000 0.000000 0.000000 0.000000 0.000000 0.000000 0.000000 0.000000 0.000000 0.000000 0.000000 0.000000 0.000000 0.000000 0.000000 0.000000 0.000000 0.000000 0.000000 0.000000 0.000000 0.000000 0.000000 0.000000 0.000000 0.000000 0.000000 0.000000 0.000000 0.000000 0.000000 0.000000 -6.811108 -4.899554 18.763727 -5.562422 -27.493652 32.207996 -25.037480 4.162868 58.978053 -22.838563 5.972079 4.940536 0.000000 0.000000 0.000000 0.000000 0.000000 0.000000 0.000000 0.000000 0.000000 0.000000 0.000000 0.000000 0.000000 0.000000 0.000000 0.000000 0.000000 0.000000 0.000000 0.000000 0.000000 0.000000 0.000000 0.000000 0.000000 0.000000 0.000000 0.000000 0.000000 0.000000 0.000000 0.000000 0.000000 0.000000 0.000000 0.000000 0.000000 0.000000 0.000000 0.000000 0.000000 0.000000
-0.102352 -0.273124 1.136901 -3.355440 3.788994 -29.499850 -58.583945 -10.674474 -8.656327 93.112433 10.183945 -11.042122 -31.736506 -3.660050 4.009306 -3.808901 -8.888595 -2.070708 -62.862270 8.248523 6.593038 94.710028 -10.215807 0.552073 -36.729108 10.605891 -1.719189 2.799090 -6.490419 0.794411 31.355050 -0.291787 1.005891 2.229190 -6.463257 -5.535216 -9.112281 1.122434 1.787908 0.857264 -0.026012 -2.564735 -1.484517 -3.659807 -10.880593 -5.906492 7.148706 -21.145213 -4.071162 30.692660 -38.131211 -19.308829 -4.431377 -56.194645 -21.255011 -13.460117 -6.982551 0.000000 0.000000 0.000000 0.000000 0.000000 0.000000 0.000000 0.000000 0.000000 0.000000 0.000000 0.000000 0.000000 0.000000 0.000000 0.000000 0.000000 0.000000 0.000000 0.000000 0.000000 0.000000 0.000000 0.000000 0.000000 0.000000 0.000000 0.000000 0.000000 0.000000 0.000000 0.000000 0.000000 0.000000 0.000000 0.000000 0.000000 0.000000 0.000000 0.000000 0.000000 0.000000 -6.625033 -5.791113 19.065550 -4.220242 -28.223280 32.647370 -22.744442 3.895285 54.749990 -22.663126 4.599772 4.399028 0.000000 0.000000 0.000000 0.000000 0.000000 0.000000 0.000000 0.000000 0.000000 0.000000 0.000000 0.000000 0.000000 0.000000 0.000000 0.000000 0.000000 0.000000 0.000000 0.000000 0.000000 0.000000 0.000000 0.000000 0.000000 0.000000 0.000000 0.000000 0.000000 0.000000 0.000000 0.000000 0.000000 0.000000 0.000000 0.000000 0.000000 0.000000 0.000000 0.000000 0.000000 0.000000
-0.103065 -0.280032 1.122904 -3.757472 3.881995 -29.410182 -60.304410 -10.793297 -9.106945 95.705196 10.134215 -11.598443 -32.157869 -3.871614 3.774186 -3.782048 -8.779694 -2.049077 -64.480570 8.593441 6.903794 97.177833 -10.557146 0.826466 -37.504881 10.947663 -1.529844 2.775236 -6.515563 0.716072 32.363492 -0.307903 1.038205 2.278015 -6.536943 -5.491052 -9.380234 1.138835 1.733387 0.652787 -0.249597 -3.058831 -1.899681 -4.168647 -11.207311 -5.175372 7.778790 -21.666138 -3.749526 31.178757 -37.914266 -18.572760 -4.386068 -53.423352 -20.776723 -14.028938 -6.701011 0.000000 0.000000 0.000000 0.000000 0.000000 0.000000 0.000000 0.000000 0.000000 0.000000 0.000000 0.000000 0.000000 0.000000 0.000000 0.000000 0.000000 0.000000 0.000000 0.000000 0.000000 0.000000 0.000000 0.000000 0.000000 0.000000 0.000000 0.000000 0.000000 0.000000 0.000000 0.000000 0.000000 0.000000 0.000000 0.000000 0.000000 0.000000 0.000000 0.000000 0.000000 0.000000 -6.214719 -5.781837 19.644073 -3.736273 -28.887361 32.686087 -21.526013 3.599777 51.422258 -22.403537 4.179230 4.380311 0.000000 0.000000 0.000000 0.000000 0.000000 0.000000 0.000000 0.000000 0.000000 0.000000 0.000000 0.000000 0.000000 0.000000 0.000000 0.000000 0.000000 0.000000 0.000000 0.000000 0.000000 0.000000 0.000000 0.000000 0.000000 0.000000 0.000000 0.000000 0.000000 0.000000 0.000000 0.000000 0.000000 0.000000 0.000000 0.000000 0.000000 0.000000 0.000000 0.000000 0.000000 0.000000
-0.102291 -0.286859 1.109310 -4.184021 3.932947 -29.289626 -61.664119 -10.929503 -9.550918 97.860958 10.122523 -12.080251 -33.102023 -4.398957 3.419843 -3.786593 -8.690217 -1.979609 -66.069916 8.843765 7.262553 99.685454 -10.904566 1.034338 -38.123043 11.370742 -1.395525 2.790229 -6.666591 0.622897 33.562819 -0.427657 0.996673 2.200772 -6.569040 -5.325693 -9.447914 1.164232 1.649417 0.406267 -0.375340 -3.076173 -2.306574 -4.222271 -11.487663 -4.564044 8.437001 -22.140521 -3.660535 31.526134 -37.517015 -17.699452 -4.275529 -50.757145 -20.294051 -14.102931 -6.480821 0.000000 0.000000 0.000000 0.000000 0.000000 0.000000 0.000000 0.000000 0.000000 0.000000 0.000000 0.000000 0.000000 0.000000 0.000000 0.000000 0.000000 0.000000 0.000000 0.000000 0.000000 0.000000 0.000000 0.000000 0.000000 0.000000 0.000000 0.000000 0.000000 0.000000 0.000000 0.000000 0.000000 0.000000 0.000000 0.000000 0.000000 0.000000 0.000000 0.000000 0.000000 0.000000 -5.897121 -5.962267 20.208287 -3.328944 -29.213566 32.737165 -20.102308 3.331405 48.322047 -21.793065 3.663628 4.302047 0.000000 0.000000 0.000000 0.000000 0.000000 0.000000 0.000000 0.000000 0.000000 0.000000 0.000000 0.000000 0.000000 0.000000 0.000000 0.000000 0.000000 0.000000 0.000000 0.000000 0.000000 0.000000 0.000000 0.000000 0.000000 0.000000 0.000000 0.000000 0.000000 0.000000 0.000000 0.000000 0.000000 0.000000 0.000000 0.000000 0.000000 0.000000 0.000000 0.000000 0.000000 0.000000
